<?xml version="1.0" standalone="no"?>
<!DOCTYPE svg PUBLIC "-//W3C//DTD SVG 20010904//EN"
 "http://www.w3.org/TR/2001/REC-SVG-20010904/DTD/svg10.dtd">
<svg version="1.0" xmlns="http://www.w3.org/2000/svg"
 width="728.000000pt" height="728.000000pt" viewBox="0 0 728.000000 728.000000"
 preserveAspectRatio="xMidYMid meet">
<metadata>
Created by potrace 1.11, written by Peter Selinger 2001-2013
</metadata>
<g transform="translate(0.000000,728.000000) scale(0.100000,-0.100000)"
fill="#000000" stroke="none">
<path d="M1701 5867 c-57 -30 -98 -88 -111 -159 -6 -31 -9 -140 -8 -242 l3
-186 -160 0 c-184 0 -221 -8 -276 -57 -73 -66 -69 21 -69 -1472 0 -902 4
-1348 11 -1374 13 -49 63 -105 114 -128 38 -18 111 -19 1525 -19 l1485 -1 59
-85 c66 -97 132 -177 258 -315 146 -159 422 -398 497 -429 48 -19 115 -7 169
31 233 163 496 417 667 645 252 334 362 667 326 989 -39 360 -243 666 -566
850 l-78 44 -2 578 c-1 397 -5 586 -13 604 -18 43 -74 101 -117 120 -38 18
-97 19 -1117 19 l-1078 0 0 213 c0 117 -5 229 -11 250 -13 49 -63 105 -114
128 -37 17 -83 19 -696 19 l-656 0 -42 -23z m1099 -487 l0 -90 -395 0 -395 0
0 90 0 90 395 0 395 0 0 -90z m2320 -919 l0 -398 -119 -12 c-206 -21 -366 -75
-517 -174 -385 -254 -580 -707 -488 -1140 8 -38 14 -73 14 -78 0 -6 -477 -8
-1252 -7 l-1253 3 -2 960 c-1 528 1 1024 4 1103 l6 142 1803 0 1804 0 0 -399z
m82 -731 c261 -38 479 -200 598 -445 194 -397 39 -840 -460 -1322 -115 -111
-236 -213 -253 -213 -7 0 -73 56 -147 124 -258 236 -444 469 -549 689 -112
233 -129 430 -56 639 51 145 130 257 250 354 180 146 394 206 617 174z"/>
<path d="M3951 4639 l-31 -31 0 -245 0 -245 30 -28 c39 -37 64 -38 533 -36
l387 1 33 33 32 32 0 246 0 246 -33 29 -32 29 -444 0 -444 0 -31 -31z m769
-274 l0 -95 -295 0 -295 0 0 95 0 95 295 0 295 0 0 -95z"/>
<path d="M2815 4614 c-226 -23 -445 -139 -586 -308 -66 -80 -149 -238 -176
-336 -28 -102 -25 -340 5 -443 105 -363 414 -612 787 -634 392 -23 743 222
871 608 26 78 28 96 28 249 1 177 -4 205 -64 351 -74 181 -245 354 -437 440
-122 55 -303 86 -428 73z m234 -230 c219 -49 413 -242 471 -470 39 -151 24
-296 -46 -443 -38 -80 -57 -107 -127 -176 -64 -63 -101 -90 -167 -122 -109
-53 -172 -67 -295 -67 -179 0 -325 62 -455 193 -134 136 -197 300 -187 491 9
167 70 301 192 425 161 162 376 221 614 169z"/>
<path d="M5022 3379 c-125 -21 -264 -121 -319 -230 -94 -185 -59 -396 90 -536
116 -110 252 -145 418 -107 213 48 362 270 329 492 -35 246 -273 421 -518 381z
m204 -140 c57 -22 135 -92 164 -149 88 -173 3 -392 -179 -461 -77 -29 -185
-24 -255 11 -193 98 -247 353 -107 512 95 107 235 140 377 87z"/>
</g>
</svg>
